# Blender v2.93.18 OBJ File: ''
# www.blender.org
mtllib untitled.mtl
o 柱体_柱体.001
v 0.000000 -1.630183 -1.000000
v 0.000000 1.630182 -1.000000
v 0.248690 -1.630183 -0.968583
v 0.248690 1.630182 -0.968583
v 0.481754 -1.630183 -0.876306
v 0.481754 1.630182 -0.876307
v 0.684547 -1.630183 -0.728968
v 0.684547 1.630182 -0.728969
v 0.844328 -1.630183 -0.535827
v 0.844328 1.630182 -0.535827
v 0.951057 -1.630183 -0.309017
v 0.951057 1.630183 -0.309017
v 0.998027 -1.630183 -0.062790
v 0.998027 1.630183 -0.062791
v 0.982287 -1.630183 0.187382
v 0.982287 1.630183 0.187381
v 0.904827 -1.630182 0.425780
v 0.904827 1.630183 0.425779
v 0.770513 -1.630182 0.637424
v 0.770513 1.630183 0.637424
v 0.587785 -1.630182 0.809017
v 0.587785 1.630183 0.809017
v 0.368125 -1.630182 0.929777
v 0.368125 1.630183 0.929776
v 0.125333 -1.630182 0.992115
v 0.125333 1.630183 0.992114
v -0.125333 -1.630182 0.992115
v -0.125333 1.630183 0.992114
v -0.368125 -1.630182 0.929777
v -0.368125 1.630183 0.929776
v -0.587785 -1.630182 0.809017
v -0.587785 1.630183 0.809017
v -0.770513 -1.630182 0.637424
v -0.770513 1.630183 0.637424
v -0.904827 -1.630182 0.425780
v -0.904827 1.630183 0.425779
v -0.982287 -1.630183 0.187382
v -0.982287 1.630183 0.187381
v -0.998027 -1.630183 -0.062790
v -0.998027 1.630183 -0.062791
v -0.951056 -1.630183 -0.309017
v -0.951056 1.630183 -0.309017
v -0.844328 -1.630183 -0.535826
v -0.844328 1.630182 -0.535827
v -0.684547 -1.630183 -0.728968
v -0.684547 1.630182 -0.728969
v -0.481754 -1.630183 -0.876306
v -0.481754 1.630182 -0.876307
v -0.248690 -1.630183 -0.968583
v -0.248690 1.630182 -0.968583
vt 0.864121 0.000428
vt 0.864121 1.000000
vt 0.829579 1.000000
vt 0.829579 0.000428
vt 0.795037 1.000000
vt 0.795037 0.000428
vt 0.760495 1.000000
vt 0.760495 0.000428
vt 0.725954 1.000000
vt 0.725954 0.000428
vt 0.691412 1.000000
vt 0.691412 0.000428
vt 0.656870 1.000000
vt 0.656870 0.000428
vt 0.622328 1.000000
vt 0.622328 0.000428
vt 0.587786 1.000000
vt 0.587786 0.000428
vt 0.553244 1.000000
vt 0.553244 0.000428
vt 0.518703 1.000000
vt 0.518703 0.000428
vt 0.484161 1.000000
vt 0.484161 0.000428
vt 0.449619 1.000000
vt 0.449619 0.000428
vt 0.415077 1.000000
vt 0.415077 0.000428
vt 0.380535 1.000000
vt 0.380535 0.000428
vt 0.345993 1.000000
vt 0.345993 0.000428
vt 0.311452 1.000000
vt 0.311452 0.000428
vt 0.276910 1.000000
vt 0.276910 0.000428
vt 0.242368 1.000000
vt 0.242368 0.000428
vt 0.207826 1.000000
vt 0.207826 0.000428
vt 0.173284 1.000000
vt 0.173284 0.000428
vt 0.138743 1.000000
vt 0.138743 0.000428
vt 0.104201 1.000000
vt 0.104201 0.000428
vt 0.069659 1.000000
vt 0.069659 0.000428
vt 0.909196 0.324288
vt 0.893301 0.306524
vt 0.879766 0.279931
vt 0.869441 0.246178
vt 0.862974 0.207388
vt 0.860772 0.165997
vt 0.862974 0.124606
vt 0.869441 0.085815
vt 0.879766 0.052063
vt 0.893301 0.025469
vt 0.909196 0.007706
vt 0.926451 -0.000112
vt 0.943983 0.002508
vt 0.960689 0.015400
vt 0.975521 0.037755
vt 0.987546 0.068168
vt 0.996009 0.104727
vt 1.000377 0.145137
vt 1.000377 0.186857
vt 0.996009 0.227266
vt 0.987546 0.263826
vt 0.975521 0.294239
vt 0.960689 0.316594
vt 0.943983 0.329486
vt 0.926451 0.332105
vt 0.035117 1.000000
vt 0.035117 0.000428
vt 0.000575 1.000000
vt 0.000575 0.000428
vt 0.884005 0.558607
vt 0.883695 0.552793
vt 0.884005 0.546978
vt 0.884913 0.541528
vt 0.886364 0.536787
vt 0.888265 0.533051
vt 0.890498 0.530555
vt 0.892922 0.529457
vt 0.895385 0.529825
vt 0.897732 0.531636
vt 0.899816 0.534777
vt 0.901505 0.539049
vt 0.902694 0.544185
vt 0.903308 0.549862
vt 0.903308 0.555723
vt 0.902694 0.561400
vt 0.901505 0.566536
vt 0.899816 0.570809
vt 0.897732 0.573949
vt 0.895385 0.575760
vt 0.892922 0.576128
vt 0.890498 0.575030
vt 0.888265 0.572534
vt 0.886364 0.568798
vt 0.884913 0.564057
vn -0.0000 -0.6800 -0.7333
vn -0.0000 0.6800 -0.7333
vn 0.1824 0.6800 -0.7102
vn 0.1824 -0.6800 -0.7102
vn 0.3532 0.6800 -0.6426
vn 0.3532 -0.6800 -0.6426
vn 0.5019 0.6800 -0.5345
vn 0.5019 -0.6800 -0.5345
vn 0.6191 0.6800 -0.3929
vn 0.6191 -0.6800 -0.3929
vn 0.6974 0.6800 -0.2266
vn 0.6974 -0.6800 -0.2266
vn 0.7318 0.6800 -0.0460
vn 0.7318 -0.6800 -0.0460
vn 0.7203 0.6800 0.1374
vn 0.7203 -0.6800 0.1374
vn 0.6635 0.6800 0.3122
vn 0.6635 -0.6800 0.3122
vn 0.5650 0.6800 0.4674
vn 0.5650 -0.6800 0.4674
vn 0.4310 0.6800 0.5932
vn 0.4310 -0.6800 0.5932
vn 0.2699 0.6800 0.6818
vn 0.2699 -0.6800 0.6818
vn 0.0919 0.6800 0.7275
vn 0.0919 -0.6800 0.7275
vn -0.0919 0.6800 0.7275
vn -0.0919 -0.6800 0.7275
vn -0.2699 0.6800 0.6818
vn -0.2699 -0.6800 0.6818
vn -0.4310 0.6800 0.5932
vn -0.4310 -0.6800 0.5932
vn -0.5650 0.6800 0.4674
vn -0.5650 -0.6800 0.4674
vn -0.6635 0.6800 0.3122
vn -0.6635 -0.6800 0.3122
vn -0.7203 0.6800 0.1374
vn -0.7203 -0.6800 0.1374
vn -0.7318 0.6800 -0.0460
vn -0.7318 -0.6800 -0.0460
vn -0.6974 0.6800 -0.2266
vn -0.6974 -0.6800 -0.2266
vn -0.6191 0.6800 -0.3929
vn -0.6191 -0.6800 -0.3929
vn -0.5019 0.6800 -0.5345
vn -0.5019 -0.6800 -0.5345
vn -0.3532 0.6800 -0.6426
vn -0.3532 -0.6800 -0.6426
vn -0.1824 0.6800 -0.7102
vn -0.1824 -0.6800 -0.7102
usemtl 材质
s 1
f 1/1/1 2/2/2 4/3/3 3/4/4
f 3/4/4 4/3/3 6/5/5 5/6/6
f 5/6/6 6/5/5 8/7/7 7/8/8
f 7/8/8 8/7/7 10/9/9 9/10/10
f 9/10/10 10/9/9 12/11/11 11/12/12
f 11/12/12 12/11/11 14/13/13 13/14/14
f 13/14/14 14/13/13 16/15/15 15/16/16
f 15/16/16 16/15/15 18/17/17 17/18/18
f 17/18/18 18/17/17 20/19/19 19/20/20
f 19/20/20 20/19/19 22/21/21 21/22/22
f 21/22/22 22/21/21 24/23/23 23/24/24
f 23/24/24 24/23/23 26/25/25 25/26/26
f 25/26/26 26/25/25 28/27/27 27/28/28
f 27/28/28 28/27/27 30/29/29 29/30/30
f 29/30/30 30/29/29 32/31/31 31/32/32
f 31/32/32 32/31/31 34/33/33 33/34/34
f 33/34/34 34/33/33 36/35/35 35/36/36
f 35/36/36 36/35/35 38/37/37 37/38/38
f 37/38/38 38/37/37 40/39/39 39/40/40
f 39/40/40 40/39/39 42/41/41 41/42/42
f 41/42/42 42/41/41 44/43/43 43/44/44
f 43/44/44 44/43/43 46/45/45 45/46/46
f 45/46/46 46/45/45 48/47/47 47/48/48
f 4/49/3 2/50/2 50/51/49 48/52/47 46/53/45 44/54/43 42/55/41 40/56/39 38/57/37 36/58/35 34/59/33 32/60/31 30/61/29 28/62/27 26/63/25 24/64/23 22/65/21 20/66/19 18/67/17 16/68/15 14/69/13 12/70/11 10/71/9 8/72/7 6/73/5
f 47/48/48 48/47/47 50/74/49 49/75/50
f 49/75/50 50/74/49 2/76/2 1/77/1
f 1/78/1 3/79/4 5/80/6 7/81/8 9/82/10 11/83/12 13/84/14 15/85/16 17/86/18 19/87/20 21/88/22 23/89/24 25/90/26 27/91/28 29/92/30 31/93/32 33/94/34 35/95/36 37/96/38 39/97/40 41/98/42 43/99/44 45/100/46 47/101/48 49/102/50
